<svg width="18" height="18" viewBox="0 0 18 18" fill="none" xmlns="http://www.w3.org/2000/svg">
<path d="M15.6667 0.666666H2.33334C1.41667 0.666666 0.675005 1.41667 0.675005 2.33333L0.666672 17.3333L4.00001 14H15.6667C16.5833 14 17.3333 13.25 17.3333 12.3333V2.33333C17.3333 1.41667 16.5833 0.666666 15.6667 0.666666ZM13.1667 10.6667H4.83334C4.37501 10.6667 4.00001 10.2917 4.00001 9.83333C4.00001 9.375 4.37501 9 4.83334 9H13.1667C13.625 9 14 9.375 14 9.83333C14 10.2917 13.625 10.6667 13.1667 10.6667ZM13.1667 8.16667H4.83334C4.37501 8.16667 4.00001 7.79167 4.00001 7.33333C4.00001 6.875 4.37501 6.5 4.83334 6.5H13.1667C13.625 6.5 14 6.875 14 7.33333C14 7.79167 13.625 8.16667 13.1667 8.16667ZM13.1667 5.66667H4.83334C4.37501 5.66667 4.00001 5.29167 4.00001 4.83333C4.00001 4.375 4.37501 4 4.83334 4H13.1667C13.625 4 14 4.375 14 4.83333C14 5.29167 13.625 5.66667 13.1667 5.66667Z" fill="#DADEE6"/>
</svg>
